# Blender v2.73 (sub 0) OBJ File: ''
# www.blender.org
mtllib dice.mtl
o Cube
v 1.000000 -1.000000 -1.000000
v 1.000000 -1.000000 1.000000
v -1.000000 -1.000000 1.000000
v -1.000000 -1.000000 -1.000000
v 1.000000 1.000000 -0.999999
v 0.999999 1.000000 1.000001
v -1.000000 1.000000 1.000000
v -1.000000 1.000000 -1.000000
vt 0.265590 0.611815
vt 0.265402 0.376782
vt 0.499205 0.376593
vt 0.498163 0.611626
vt 0.969460 0.610019
vt 0.728274 0.608977
vt 0.728086 0.377635
vt 0.968041 0.377447
vt 0.029327 0.610773
vt 0.029138 0.376970
vt 0.265214 0.144209
vt 0.499016 0.144021
vt 0.264548 0.846848
vt 0.499582 0.845429
vn 0.000000 -1.000000 0.000000
vn 0.000000 1.000000 0.000000
vn 1.000000 0.000000 0.000000
vn -0.000000 -0.000000 1.000000
vn -1.000000 -0.000000 -0.000000
vn 0.000000 0.000000 -1.000000
usemtl Material
s off
f 1/1/1 2/2/1 3/3/1 4/4/1
f 5/5/2 8/6/2 7/7/2 6/8/2
f 1/1/3 5/9/3 6/10/3 2/2/3
f 2/2/4 6/11/4 7/12/4 3/3/4
f 3/3/5 7/7/5 8/6/5 4/4/5
f 5/13/6 1/1/6 4/4/6 8/14/6
